<svg id="Layer_1" data-name="Layer 1" xmlns="http://www.w3.org/2000/svg" viewBox="0 0 341 118"><defs><style>.cls-1{fill:#fff;}</style></defs><title>Artboard 1</title><path class="cls-1" d="M74,39.18a2.49,2.49,0,0,1-1.89-.86C67.65,33.16,58.19,29.83,48,29.83s-19.65,3.33-24.11,8.48A2.5,2.5,0,1,1,20.11,35C25.56,28.75,36.25,24.83,48,24.83S70.44,28.75,75.89,35A2.5,2.5,0,0,1,74,39.18Z"/><path class="cls-1" d="M82,28.94a2.49,2.49,0,0,1-1.89-.86c-6-6.9-18.57-11.36-32.11-11.36S21.86,21.17,15.89,28.07a2.5,2.5,0,1,1-3.78-3.27c7-8.07,20.74-13.09,35.89-13.09s28.91,5,35.89,13.09A2.5,2.5,0,0,1,82,28.94Z"/><path class="cls-1" d="M34.68,101.36A26,26,0,0,1,25,96a4.07,4.07,0,0,1-1.33-3.11,3.48,3.48,0,0,1,.71-2.17A2.08,2.08,0,0,1,26,89.78a4.29,4.29,0,0,1,2.48,1,29.91,29.91,0,0,0,18.81,6.39Q55,97.14,59,94.21a9.65,9.65,0,0,0,4.08-8.34,6.7,6.7,0,0,0-2-5A14.1,14.1,0,0,0,56,77.8a77.42,77.42,0,0,0-8.61-2.4,83.77,83.77,0,0,1-11.94-3.55,18.57,18.57,0,0,1-7.54-5.32,13.67,13.67,0,0,1-2.88-9.05A16.09,16.09,0,0,1,27.94,48,18.67,18.67,0,0,1,36,41.64a29.38,29.38,0,0,1,11.85-2.26,34.36,34.36,0,0,1,11.58,1.91,24.41,24.41,0,0,1,9,5.46,4.33,4.33,0,0,1,1.42,3.11A3.49,3.49,0,0,1,69.16,52a2.08,2.08,0,0,1-1.69.93,5.39,5.39,0,0,1-2.57-1,30.2,30.2,0,0,0-8.08-5,25.22,25.22,0,0,0-9-1.42q-7.37,0-11.45,3.06a10.09,10.09,0,0,0-4.08,8.56,7.87,7.87,0,0,0,3.59,7.05q3.59,2.35,11,4.13Q55,70.34,59.66,72a19,19,0,0,1,7.68,4.92A12.37,12.37,0,0,1,70.4,85.7a15.36,15.36,0,0,1-2.88,9.23,18.74,18.74,0,0,1-8.12,6.21,30.47,30.47,0,0,1-12,2.22A40.57,40.57,0,0,1,34.68,101.36Z"/><path class="cls-1" d="M86.51,100.52a18.38,18.38,0,0,1-7.19-7.81A25.87,25.87,0,0,1,76.79,81a25.67,25.67,0,0,1,2.62-11.8,19.35,19.35,0,0,1,7.32-8,20.54,20.54,0,0,1,10.83-2.84,24.75,24.75,0,0,1,6.7.93A18.52,18.52,0,0,1,110.07,62a7.9,7.9,0,0,1,2.26,2.09,4.06,4.06,0,0,1,.67,2.26,3.08,3.08,0,0,1-.67,2,2.15,2.15,0,0,1-1.73.8,3,3,0,0,1-1.33-.35,8.25,8.25,0,0,1-1.2-.71,6.5,6.5,0,0,0-.67-.44,28.68,28.68,0,0,0-4.39-2.4,13.07,13.07,0,0,0-5.1-.89q-6.48,0-10.07,4.39T84.24,81q0,7.81,3.59,12.07t10.07,4.26a13.71,13.71,0,0,0,5.19-.89,23.78,23.78,0,0,0,4.39-2.4q1-.62,1.86-1.06a3.53,3.53,0,0,1,1.51-.44,2.06,2.06,0,0,1,1.64.8,3.08,3.08,0,0,1,.67,2,3.68,3.68,0,0,1-.62,2.08,8.67,8.67,0,0,1-2.31,2.08,21.08,21.08,0,0,1-6,2.71,25.16,25.16,0,0,1-7.06,1A20.63,20.63,0,0,1,86.51,100.52Z"/><path class="cls-1" d="M153.46,62.67q3.9,4.31,3.9,12.82v24a3.45,3.45,0,0,1-1,2.62,3.57,3.57,0,0,1-2.57.93,3.69,3.69,0,0,1-2.66-.93,3.44,3.44,0,0,1-1-2.62V75.67q0-5.77-2.35-8.52t-7.5-2.75a12.66,12.66,0,0,0-9.5,3.64q-3.55,3.64-3.55,9.85V99.54a3.24,3.24,0,0,1-3.55,3.55,3.69,3.69,0,0,1-2.66-.93,3.44,3.44,0,0,1-1-2.62V43.1a3.29,3.29,0,0,1,1-2.48,3.63,3.63,0,0,1,2.62-1,3.54,3.54,0,0,1,2.62.93,3.42,3.42,0,0,1,.93,2.53V66.35a14.4,14.4,0,0,1,5.95-5.95,18.15,18.15,0,0,1,8.7-2Q149.56,58.36,153.46,62.67Z"/><path class="cls-1" d="M175.87,100.52a18.32,18.32,0,0,1-7.19-7.85,26.35,26.35,0,0,1-2.53-11.85A26.36,26.36,0,0,1,168.68,69a18.33,18.33,0,0,1,7.19-7.85,20.8,20.8,0,0,1,10.78-2.75,21,21,0,0,1,10.83,2.75A18.25,18.25,0,0,1,204.71,69a26.36,26.36,0,0,1,2.53,11.85,26.35,26.35,0,0,1-2.53,11.85,18.24,18.24,0,0,1-7.23,7.85,21,21,0,0,1-10.83,2.75A20.8,20.8,0,0,1,175.87,100.52Zm20.59-7.41q3.42-4.21,3.42-12.29,0-7.9-3.46-12.2t-9.76-4.3q-6.3,0-9.76,4.3t-3.46,12.2q0,8,3.42,12.25t9.81,4.26Q193,97.32,196.46,93.11Z"/><path class="cls-1" d="M275.43,40.66a3.86,3.86,0,0,1,.93,2.71V99.54a3.68,3.68,0,0,1-.89,2.57,3.19,3.19,0,0,1-2.48,1,2.92,2.92,0,0,1-2.4-1,3.94,3.94,0,0,1-.8-2.57V54.19L250.54,91.11a3.92,3.92,0,0,1-3.64,2.57q-2.31,0-3.64-2.57L223.92,54.64v44.9a3.8,3.8,0,0,1-.84,2.57,3.05,3.05,0,0,1-2.44,1,3.19,3.19,0,0,1-2.48-1,3.68,3.68,0,0,1-.89-2.57V43.37a3.75,3.75,0,0,1,1-2.71,3.51,3.51,0,0,1,2.66-1q2.22,0,3.55,2.57L247,85.43l22.27-43.22a5.15,5.15,0,0,1,1.55-2,3.45,3.45,0,0,1,2-.58A3.37,3.37,0,0,1,275.43,40.66Z"/><path class="cls-1" d="M296.2,100.52A18.32,18.32,0,0,1,289,92.66a26.35,26.35,0,0,1-2.53-11.85A26.36,26.36,0,0,1,289,69a18.33,18.33,0,0,1,7.19-7.85A20.8,20.8,0,0,1,307,58.36a21,21,0,0,1,10.83,2.75A18.25,18.25,0,0,1,325,69a26.36,26.36,0,0,1,2.53,11.85A26.35,26.35,0,0,1,325,92.66a18.24,18.24,0,0,1-7.23,7.85A21,21,0,0,1,307,103.27,20.8,20.8,0,0,1,296.2,100.52Zm20.59-7.41q3.42-4.21,3.42-12.29,0-7.9-3.46-12.2T307,64.31q-6.3,0-9.76,4.3t-3.46,12.2q0,8,3.42,12.25T307,97.32Q313.37,97.32,316.79,93.11Z"/></svg>